<svg width="16" height="17" viewBox="0 0 16 17" fill="none" xmlns="http://www.w3.org/2000/svg">
<path d="M11.2999 6.14151L8.94286 8.49854L11.2999 10.8556C11.4249 10.9806 11.4951 11.1502 11.4951 11.327C11.4951 11.5038 11.4249 11.6733 11.2999 11.7984C11.1749 11.9234 11.0053 11.9936 10.8285 11.9936C10.6517 11.9936 10.4821 11.9234 10.3571 11.7984L8.00005 9.44134L5.64303 11.7984C5.51801 11.9234 5.34844 11.9936 5.17163 11.9936C4.99482 11.9936 4.82525 11.9234 4.70022 11.7984C4.5752 11.6733 4.50496 11.5038 4.50496 11.327C4.50496 11.1502 4.5752 10.9806 4.70022 10.8556L7.05724 8.49854L4.70022 6.14151C4.5752 6.01649 4.50496 5.84692 4.50496 5.67011C4.50496 5.4933 4.5752 5.32373 4.70022 5.1987C4.82525 5.07368 4.99482 5.00344 5.17163 5.00344C5.34844 5.00344 5.51801 5.07368 5.64303 5.1987L8.00005 7.55573L10.3571 5.1987C10.4821 5.07368 10.6517 5.00344 10.8285 5.00344C11.0053 5.00344 11.1749 5.07368 11.2999 5.1987C11.4249 5.32373 11.4951 5.4933 11.4951 5.67011C11.4951 5.84692 11.4249 6.01649 11.2999 6.14151Z" fill="black" fill-opacity="0.5"/>
</svg>
